<svg version="1.1" id="Layer_1" xmlns="http://www.w3.org/2000/svg" xmlns:xlink="http://www.w3.org/1999/xlink" x="0px" y="0px"
	 width="100%" viewBox="0 0 250 350" enable-background="new 0 0 250 350" xml:space="preserve">

<path fill="#070707" opacity="1.000000" stroke="none" 
	d="
M71.976227,132.358978 
	C71.548889,133.864548 73.349953,135.606140 71.553711,136.110138 
	C70.124702,136.511108 70.277176,134.587646 69.741951,133.648300 
	C63.471733,122.643936 62.148911,110.426666 61.115433,98.173424 
	C60.789886,94.313629 59.922112,91.168221 56.434837,88.841331 
	C54.169762,87.329956 54.901207,85.286278 55.261532,82.408661 
	C56.576416,71.907791 65.902794,67.540649 70.596802,59.790283 
	C72.432686,56.759029 74.552017,53.085678 79.113678,52.822273 
	C79.608086,52.793728 80.105331,51.666176 80.485367,50.983849 
	C84.003609,44.667213 88.424820,39.519161 95.545334,36.827984 
	C99.494827,35.335281 103.018600,32.669991 106.649963,30.398455 
	C108.955437,28.956297 110.977989,31.212475 113.697525,30.136059 
	C136.029205,21.296959 154.424911,26.420885 169.535431,45.318787 
	C173.053802,49.719028 178.185669,51.443157 182.406815,54.411762 
	C187.011124,57.649830 194.618530,59.319733 194.889359,67.879417 
	C195.051102,72.991524 197.802673,78.006218 199.278290,83.097099 
	C200.469894,87.208138 200.027847,91.294487 198.935059,95.396599 
	C195.993607,106.438438 193.559357,117.666267 187.141357,127.407570 
	C185.793335,129.453629 186.665497,132.354584 184.512985,134.129425 
	C182.401367,132.738007 185.189697,130.484055 182.569016,128.657928 
	C181.341583,134.363297 179.939758,139.685806 179.135696,145.097137 
	C178.704025,148.002350 177.209290,149.814575 174.897583,150.751816 
	C164.852142,154.824600 154.619232,155.589600 144.337753,151.573242 
	C137.315567,148.830078 134.197891,142.951920 132.344467,136.148346 
	C131.951645,134.706345 131.649063,133.239182 131.325760,131.778976 
	C130.918259,129.938446 129.790878,128.649918 127.924591,128.764984 
	C126.123581,128.876053 125.071495,130.142838 124.785728,132.057495 
	C124.492630,134.021317 124.121941,135.998398 123.526268,137.888046 
	C120.578255,147.240143 113.989601,152.377884 104.456001,153.765930 
	C96.749168,154.888016 89.220154,154.008011 81.990929,150.981415 
	C79.219902,149.821259 77.412758,148.068405 76.941193,144.832596 
	C76.270691,140.231750 75.167992,135.693542 74.235252,131.131577 
	C74.039597,130.174622 73.887596,128.752731 72.656326,129.038391 
	C71.051857,129.410629 72.171623,130.968323 71.976227,132.358978 
z"/>
<path fill="#030303" opacity="1.000000" stroke="none" 
	d="
M124.452301,223.270676 
	C127.923454,219.902054 129.531433,222.611099 130.871078,224.606476 
	C133.780563,228.940063 137.168686,232.809540 141.504211,235.663696 
	C149.047714,240.629715 157.416565,242.093369 166.260284,240.495163 
	C168.394989,240.109390 170.109558,239.726212 171.197983,242.180145 
	C176.018127,253.047592 177.697784,264.101227 173.308182,275.534515 
	C172.784927,276.897369 172.920883,279.134308 170.115189,277.450714 
	C168.519302,276.493073 169.102997,278.529205 169.041672,279.201508 
	C168.239059,288.000610 164.329681,295.381195 158.544052,301.812714 
	C157.416229,303.066406 156.569504,306.216522 153.605728,303.904144 
	C153.037720,303.460938 152.492126,304.331024 152.223450,304.921661 
	C150.062897,309.671295 145.607849,312.270569 142.099548,315.756836 
	C139.375259,318.463989 137.117462,321.295258 140.449860,326.040985 
	C134.591934,325.509796 129.796448,323.831390 125.111061,322.253540 
	C116.156860,319.238129 108.173935,314.418152 102.848579,306.363556 
	C101.184700,303.846985 98.433884,304.155212 96.571373,302.332458 
	C92.021080,297.879242 90.498062,292.170807 89.086075,286.353149 
	C88.655624,284.579590 88.602081,282.714722 88.173721,280.940460 
	C87.751656,279.192261 89.262024,275.832733 85.036095,276.805756 
	C84.849182,276.848755 84.237213,275.170166 83.867363,274.275269 
	C79.426590,263.530151 80.832336,252.832993 83.922821,242.067139 
	C84.791107,239.042404 86.642075,239.729370 88.562141,240.097290 
	C97.211342,241.754562 105.332947,240.585571 112.901756,235.894043 
	C115.632980,234.201096 117.771980,231.905960 120.091583,229.027191 
	C120.665604,227.201584 121.653458,226.394897 122.525734,225.126404 
	C122.813507,224.705444 122.931244,224.538635 123.241699,224.132767 
	C123.583611,223.752960 123.732796,223.612183 124.452301,223.270676 
z"/>
<path fill="#030303" opacity="1.000000" stroke="none" 
	d="
M120.063431,229.001801 
	C118.203407,227.018082 117.591019,229.464523 116.756332,230.156479 
	C112.746521,233.480515 108.300095,236.061737 103.382591,237.586441 
	C91.777634,241.184647 81.323311,235.496826 77.227005,223.303986 
	C74.999268,216.673065 75.284203,209.833908 77.096558,203.121811 
	C77.751984,200.694412 79.202835,198.450027 81.432259,197.254578 
	C82.535110,196.663208 84.409050,195.483658 85.525070,196.720215 
	C86.905312,198.249512 84.596306,198.786575 83.966095,199.753937 
	C81.597076,203.390335 80.590515,206.991257 83.651932,210.750702 
	C86.654831,214.438339 90.768784,215.330841 95.238396,213.279144 
	C98.937637,211.581055 101.848862,208.927063 104.480148,205.879242 
	C106.761749,203.236465 109.009262,200.531235 111.553993,198.155884 
	C116.169617,193.847504 119.108223,193.537003 124.473969,196.892975 
	C126.800247,198.347931 128.423843,198.591843 130.918915,196.978287 
	C136.699203,193.240265 139.505234,193.894424 144.506714,198.752014 
	C148.908127,203.026825 152.224808,208.397766 157.542297,211.737259 
	C163.406052,215.419876 167.702133,215.226974 171.425644,211.187393 
	C174.846390,207.476273 174.528137,204.285583 170.182831,198.385742 
	C170.014267,198.156876 170.072098,197.761261 169.991684,197.224777 
	C174.818390,195.490417 176.699066,198.977478 177.958588,202.248337 
	C181.998627,212.739883 180.009796,227.532990 169.645432,235.142868 
	C160.771439,241.658478 152.449478,238.664597 144.205078,233.982590 
	C138.931747,230.987808 134.793091,226.744720 131.187149,221.864410 
	C127.640656,217.064590 127.204010,217.209427 124.625595,222.874252 
	C125.022614,223.069931 125.035652,223.000381 125.063599,222.978683 
	C124.804886,223.171127 124.545036,223.414200 124.132050,223.883667 
	C123.955925,224.085190 124.006599,224.018890 124.041672,223.996307 
	C122.663849,225.348953 121.080856,226.585709 120.177200,228.800049 
	C119.987198,229.069870 120.027596,229.008972 120.063431,229.001801 
z"/>
<path fill="#090909" opacity="1.000000" stroke="none" 
	d="
M114.599731,190.637695 
	C108.040665,188.067093 105.483292,183.174759 105.274773,176.897995 
	C105.081238,171.072205 105.279015,165.234131 105.135368,159.405640 
	C105.077896,157.073685 105.702728,156.271103 108.216049,156.227951 
	C118.754608,156.046951 118.753403,155.948380 118.752495,166.343155 
	C118.752205,169.675644 118.708748,173.008759 118.762924,176.340332 
	C118.790855,178.058090 118.099480,180.852249 120.478745,180.757111 
	C122.674011,180.669327 122.013588,177.859879 122.026588,176.108780 
	C122.067413,170.610474 122.124893,165.109650 121.996826,159.613953 
	C121.939079,157.135986 122.434067,156.180466 125.312996,156.243301 
	C135.321625,156.461746 135.324905,156.310898 135.324875,166.228775 
	C135.324860,168.894775 135.322845,171.560776 135.325439,174.226776 
	C135.338623,187.806839 128.446381,193.423737 114.599731,190.637695 
z"/>
<path fill="#070707" opacity="1.000000" stroke="none" 
	d="
M152.632843,186.964417 
	C152.989609,189.980774 152.488358,191.174133 149.286041,191.170883 
	C139.149521,191.160568 139.147598,191.345474 139.139404,181.200500 
	C139.134155,174.720932 139.381363,168.228516 139.044754,161.766373 
	C138.827271,157.591553 139.622131,155.578537 144.368881,156.294388 
	C147.786423,156.809753 151.349197,156.273727 154.813797,156.581970 
	C165.278549,157.513016 170.429855,167.370544 165.109726,176.432617 
	C163.963669,178.384750 164.005127,179.470276 165.431000,181.107086 
	C167.379211,183.343536 168.990677,185.871902 170.771332,188.256577 
	C171.334457,189.010696 172.489929,189.561249 171.808105,190.737686 
	C171.135910,191.897507 170.026260,191.029449 169.118454,191.121353 
	C163.450287,191.695114 158.203903,191.466965 155.993179,184.779999 
	C155.659286,183.769989 154.915405,182.468887 153.479050,183.015137 
	C151.707474,183.688889 152.971497,185.348999 152.632843,186.964417 
z"/>
<path fill="#060606" opacity="1.000000" stroke="none" 
	d="
M180.192108,172.233856 
	C181.715408,167.794861 183.251755,163.772888 184.491959,159.661575 
	C185.290955,157.012863 186.671036,156.492386 189.447983,156.214752 
	C195.670486,155.592621 199.171463,157.178223 200.469406,163.865845 
	C201.364868,168.479660 203.958038,172.753555 205.694244,177.217560 
	C207.418564,181.651093 209.019989,186.132431 210.895462,191.186020 
	C206.910706,191.186020 203.030930,191.111542 199.156219,191.219589 
	C197.399429,191.268585 197.089508,189.955917 196.321884,188.924973 
	C194.166306,186.029968 189.632050,186.026657 188.051666,189.207642 
	C186.273041,192.787704 183.380325,190.960770 181.068817,191.042801 
	C174.014816,191.293121 173.961624,191.111557 176.088440,184.340454 
	C177.325516,180.401993 178.743179,176.520264 180.192108,172.233856 
z"/>
<path fill="#050505" opacity="1.000000" stroke="none" 
	d="
M41.660400,191.068146 
	C44.813446,180.261658 48.426064,169.649719 51.871834,158.983871 
	C52.563339,156.843430 53.541977,156.274216 55.781429,156.290421 
	C64.443787,156.353104 64.492851,156.225342 67.557823,164.107910 
	C70.611877,171.962387 73.423332,179.913849 76.612190,187.711975 
	C77.895279,190.849655 77.019127,191.633240 74.053970,191.113190 
	C70.051796,190.411285 65.216576,193.346390 62.238373,187.674927 
	C61.432575,186.140442 56.366566,185.972610 55.707733,187.975281 
	C54.246216,192.417908 51.223770,190.937149 48.534397,191.115829 
	C46.383339,191.258728 44.219444,191.208313 41.660400,191.068146 
z"/>
<path fill="#080808" opacity="1.000000" stroke="none" 
	d="
M94.488007,177.440018 
	C97.475128,178.417114 101.521729,176.233444 102.602798,178.716721 
	C103.955818,181.824692 103.248421,185.865906 103.264862,189.505020 
	C103.273788,191.481079 101.701263,191.172256 100.358688,191.166336 
	C94.717606,191.141434 89.073753,191.070358 83.436264,191.219101 
	C81.011909,191.283081 80.236740,190.407974 80.259758,188.046326 
	C80.351906,178.589890 80.366379,169.131470 80.268814,159.675232 
	C80.242119,157.087616 81.061378,156.287537 83.733948,156.271484 
	C94.001060,156.209869 93.986778,156.103073 94.006523,166.168945 
	C94.013687,169.813858 94.103416,173.458588 94.488007,177.440018 
z"/>
<path fill="#222222" opacity="1.000000" stroke="none" 
	d="
M49.122559,199.288849 
	C46.821030,199.340240 44.998959,199.398926 43.176491,199.440521 
	C42.134098,199.464325 41.132339,199.335510 41.005161,198.018707 
	C40.888725,196.813232 41.511940,196.126450 42.723576,196.123886 
	C51.350323,196.105560 59.977123,196.103882 68.603897,196.108902 
	C69.848991,196.109619 70.436577,196.851425 70.240623,198.009705 
	C69.972183,199.596558 68.723297,199.371185 67.525803,199.359467 
	C61.551491,199.300995 55.576565,199.306183 49.122559,199.288849 
z"/>
<path fill="#151515" opacity="1.000000" stroke="none" 
	d="
M201.921402,196.041229 
	C204.566315,196.024612 206.729538,195.913101 208.880737,196.027756 
	C210.127029,196.094162 211.175919,196.812683 210.967102,198.263657 
	C210.785172,199.527756 209.664322,199.549042 208.638901,199.546783 
	C201.504013,199.531021 194.369049,199.497437 187.234344,199.528275 
	C185.934219,199.533890 184.744492,199.348648 184.686554,197.878403 
	C184.612991,196.011459 186.112198,195.971115 187.484039,195.976685 
	C192.134247,195.995575 196.784470,196.019318 201.921402,196.041229 
z"/>
<path fill="#151515" opacity="1.000000" stroke="none" 
	d="
M60.971359,152.213058 
	C54.997410,152.221344 49.519409,152.263962 44.042339,152.210785 
	C42.858032,152.199295 41.086182,152.722778 41.035027,150.669403 
	C40.981075,148.503769 42.761856,149.125290 43.960865,149.120071 
	C51.762409,149.086044 59.564171,149.103622 67.365852,149.095001 
	C68.718956,149.093506 70.274765,148.992142 70.162430,150.916595 
	C70.063660,152.608643 68.495262,152.180405 67.441818,152.220261 
	C65.453362,152.295471 63.459347,152.223740 60.971359,152.213058 
z"/>
<path fill="#151515" opacity="1.000000" stroke="none" 
	d="
M201.703033,152.212906 
	C195.645676,152.212967 190.050903,152.212967 184.149826,152.212967 
	C184.658966,149.986313 185.805466,149.067963 187.909042,149.080109 
	C194.699066,149.119354 201.489487,149.088730 208.279709,149.098785 
	C209.411377,149.100464 210.809692,148.877975 210.937393,150.534760 
	C211.109314,152.765182 209.255386,152.128036 208.124969,152.201508 
	C206.146637,152.330063 204.152893,152.221863 201.703033,152.212906 
z"/>

<path fill="#FAFAFA" opacity="1.000000" stroke="none" 
	d="
M139.230576,140.491486 
	C138.402069,138.463135 137.560242,136.826218 137.133392,135.087433 
	C135.583740,128.774673 137.172302,125.927086 143.580673,123.991180 
	C152.576523,121.273636 161.671249,119.963791 170.953232,122.798615 
	C172.760559,123.350586 174.237427,124.111061 175.317719,125.699303 
	C179.441940,131.762634 176.088745,144.986649 169.377197,147.883377 
	C158.265808,152.679077 146.153732,151.245880 139.230576,140.491486 
z"/>
<path fill="#FCFCFC" opacity="1.000000" stroke="none" 
	d="
M103.395775,149.990128 
	C99.287148,150.782394 95.685364,150.188141 92.063919,149.530457 
	C79.514252,147.251328 78.268677,137.310059 79.978867,127.422737 
	C80.435768,124.781189 82.628220,123.439713 85.230049,122.773949 
	C95.253113,120.209198 105.099739,121.709740 114.751358,124.447166 
	C118.349426,125.467659 120.201752,128.516937 119.386772,132.711441 
	C117.655266,141.623108 113.175774,147.938202 103.395775,149.990128 
z"/>
<path fill="#F2F2F2" opacity="1.000000" stroke="none" 
	d="
M120.069260,46.013565 
	C113.671722,46.097706 107.978531,47.787754 102.118217,48.610695 
	C111.276230,43.432465 120.394638,38.097591 131.602051,41.544121 
	C141.148972,44.480003 145.568619,51.781784 147.756454,61.107616 
	C141.107300,51.515160 132.478897,45.717644 120.069260,46.013565 
z"/>
<path fill="#E9E9E9" opacity="1.000000" stroke="none" 
	d="
M88.763145,65.815521 
	C92.788574,63.831154 96.401978,61.841164 100.183670,60.251526 
	C104.287483,58.526489 100.502090,58.194618 99.958740,57.538269 
	C108.832458,53.869667 115.758141,57.477921 121.943756,64.123856 
	C107.859032,58.951263 95.752251,66.747787 82.348907,70.451622 
	C83.913795,67.129532 86.807663,67.524742 88.763145,65.815521 
z"/>
<path fill="#ECECEC" opacity="1.000000" stroke="none" 
	d="
M92.794434,75.208832 
	C87.704430,80.157158 81.863533,83.639061 75.124290,85.603371 
	C70.331520,87.000320 66.906181,85.283211 63.439533,80.746246 
	C74.378105,84.068741 82.656425,79.099091 91.488388,74.889435 
	C92.113274,74.844093 92.377296,74.843834 92.794434,75.208832 
z"/>
<path fill="#EAEAEA" opacity="1.000000" stroke="none" 
	d="
M153.641876,66.669197 
	C152.958923,66.654915 152.248047,66.282990 152.265076,66.245972 
	C156.268707,57.544373 152.502869,50.917011 146.630493,44.824417 
	C146.306915,44.488708 146.169266,43.973774 145.920532,43.495022 
	C156.366760,44.864700 160.710449,57.423523 153.641876,66.669197 
z"/>
<path fill="#E9E9E9" opacity="1.000000" stroke="none" 
	d="
M164.008987,57.259209 
	C164.545792,55.902321 164.061111,54.181511 165.535080,54.113632 
	C166.983673,54.046913 166.962311,55.666855 167.305969,56.723293 
	C167.698502,57.929867 167.286392,59.001308 166.671890,60.014805 
	C164.414856,63.737320 160.585999,65.559723 157.191818,68.017509 
	C158.763535,64.033058 159.577866,59.677002 164.008987,57.259209 
z"/>
<path fill="#E1E1E1" opacity="1.000000" stroke="none" 
	d="
M69.832077,76.915283 
	C72.056778,74.318161 75.411049,77.095245 78.370140,74.452980 
	C80.067139,72.937675 84.399765,72.679710 87.963608,72.470230 
	C83.244537,77.758499 75.576401,79.680443 69.832077,76.915283 
z"/>
<path fill="#E9E9E9" opacity="1.000000" stroke="none" 
	d="
M179.715637,61.203903 
	C182.037582,61.919601 184.485504,61.809643 185.103851,65.017242 
	C182.584000,64.491341 180.195816,64.282349 178.063171,63.432308 
	C176.902893,62.969841 173.841431,63.750713 174.858322,61.071629 
	C175.933151,58.239880 177.790421,60.868782 179.715637,61.203903 
z"/>
<path fill="#E1E1E1" opacity="1.000000" stroke="none" 
	d="
M178.157333,124.202240 
	C179.861862,122.635086 181.363724,122.519844 182.702103,124.059395 
	C182.909286,124.297707 182.812759,125.226768 182.599991,125.335892 
	C180.901794,126.206894 179.175232,126.769089 178.157333,124.202240 
z"/>
<path fill="#E1E1E1" opacity="1.000000" stroke="none" 
	d="
M75.056213,125.985130 
	C72.773682,125.568710 72.379951,124.571632 73.984779,123.420242 
	C75.102600,122.618248 76.786942,122.497986 77.475075,123.883881 
	C78.410019,125.766884 76.887901,125.990021 75.056213,125.985130 
z"/>
<path fill="#ECECEC" opacity="1.000000" stroke="none" 
	d="
M92.113808,75.041840 
	C92.483284,73.742355 93.447342,73.019325 94.503281,73.976082 
	C94.966225,74.395531 93.933846,74.952583 93.168427,75.428940 
	C92.757805,75.462494 92.568085,75.350922 92.113808,75.041840 
z"/>
<path fill="#EBEBEB" opacity="1.000000" stroke="none" 
	d="
M97.592316,276.851471 
	C101.555649,288.467743 107.070068,298.651642 116.724129,306.230316 
	C121.622833,310.075928 127.185776,312.209503 133.219147,313.595947 
	C126.602585,316.206543 120.671967,314.411713 115.344528,310.621948 
	C104.109787,302.629974 99.396568,290.728455 96.383522,277.515411 
	C96.561874,276.742737 96.904579,276.549805 97.592316,276.851471 
z"/>
<path fill="#EAEAEA" opacity="1.000000" stroke="none" 
	d="
M100.851028,278.038696 
	C99.653252,275.616974 99.768410,273.426453 100.081177,271.072205 
	C102.913757,277.116241 104.854576,283.655884 111.942383,287.545868 
	C106.669052,287.233612 103.993462,284.785980 100.851028,278.038696 
z"/>
<path fill="#E1E1E1" opacity="1.000000" stroke="none" 
	d="
M168.064941,255.380798 
	C170.702118,264.832825 169.552582,269.248566 162.711746,273.834198 
	C166.508240,267.972198 168.024704,262.680664 167.091370,256.449615 
	C167.264694,255.787643 167.454117,255.580093 168.064941,255.380798 
z"/>
<path fill="#FEFEFE" opacity="1.000000" stroke="none" 
	d="
M120.324722,229.012573 
	C119.836830,226.553528 119.836830,226.553528 123.769882,223.668640 
	C123.985878,226.352081 121.802719,227.296341 120.324722,229.012573 
z"/>
<path fill="#999999" opacity="1.000000" stroke="none" 
	d="
M97.843948,276.783203 
	C97.476021,277.173004 97.144058,277.248901 96.571167,277.237122 
	C95.759521,276.355347 95.463799,275.504486 96.478706,274.931030 
	C96.613121,274.855072 97.396873,275.928314 97.843948,276.783203 
z"/>
<path fill="#999999" opacity="1.000000" stroke="none" 
	d="
M168.425262,255.117599 
	C168.269501,255.532745 168.052643,255.676422 167.455536,255.907639 
	C166.447693,255.550110 166.371353,254.936569 166.872849,254.445221 
	C167.468765,253.861313 167.954544,254.367889 168.425262,255.117599 
z"/>
<path fill="#FEFEFE" opacity="1.000000" stroke="none" 
	d="
M124.251389,224.033829 
	C123.476509,223.470016 123.573303,222.958130 124.661621,222.751953 
	C124.909973,223.298813 124.728409,223.640640 124.251389,224.033829 
z"/>
<path fill="#ECECEC" opacity="1.000000" stroke="none" 
	d="
M154.647125,173.135864 
	C150.735504,172.374786 152.276077,169.554733 152.061310,167.483429 
	C151.921158,166.131577 153.024277,166.037613 154.080032,165.972992 
	C155.918762,165.860428 156.858475,167.247238 157.505981,168.441483 
	C158.861618,170.941849 156.339127,171.755585 154.647125,173.135864 
z"/>
<path fill="#E9E9E9" opacity="1.000000" stroke="none" 
	d="
M192.699829,176.290024 
	C193.239243,177.803864 193.049438,179.109634 194.030762,180.267426 
	C194.848953,181.232742 195.732178,182.858582 194.199539,183.629761 
	C193.030899,184.217758 191.210449,184.116867 189.906372,183.666656 
	C188.466080,183.169434 188.998276,181.856613 189.713928,180.807831 
	C190.740372,179.303604 188.561172,176.012756 192.699829,176.290024 
z"/>
<path fill="#E1E1E1" opacity="1.000000" stroke="none" 
	d="
M57.247902,177.655624 
	C58.511776,175.592712 59.691456,176.010880 60.177227,177.586670 
	C60.765705,179.495605 62.786465,181.420593 61.547989,183.346375 
	C60.693169,184.675583 58.367672,184.332169 56.962429,183.689240 
	C54.860115,182.727386 56.735249,181.239456 56.946774,179.967972 
	C57.053612,179.325775 57.055084,178.666061 57.247902,177.655624 
z"/>
</svg>